<?xml version="1.0" encoding="utf-8"?>
<!-- Generator: Adobe Illustrator 16.0.0, SVG Export Plug-In . SVG Version: 6.00 Build 0)  -->
<!DOCTYPE svg PUBLIC "-//W3C//DTD SVG 1.1//EN" "http://www.w3.org/Graphics/SVG/1.1/DTD/svg11.dtd">
<svg version="1.1" id="Layer_1" xmlns="http://www.w3.org/2000/svg" xmlns:xlink="http://www.w3.org/1999/xlink" x="0px" y="0px"
	 width="74.476px" height="76.405px" viewBox="0 0 74.476 76.405" enable-background="new 0 0 74.476 76.405" xml:space="preserve">
<g>
	<g>
		<defs>
			<rect id="SVGID_25_" x="155.906" y="232.74" width="1920" height="432"/>
		</defs>
		<clipPath id="SVGID_2_">
			<use xlink:href="#SVGID_25_"  overflow="visible"/>
		</clipPath>
		<g transform="matrix(1 0 0 1 -1.575777e-005 4.403166e-006)" clip-path="url(#SVGID_2_)">
			
				<image overflow="visible" width="5184" height="3456" xlink:href="FOTOS/katherine-mccormack-42649.jpg"  transform="matrix(0.3025 0 0 0.3025 -1045.1519 -167.9653)">
			</image>
		</g>
	</g>
</g>
<g>
	<defs>
		<rect id="SVGID_27_" x="520.525" y="-428.728" width="572.973" height="569.971"/>
	</defs>
	<clipPath id="SVGID_4_">
		<use xlink:href="#SVGID_27_"  overflow="visible"/>
	</clipPath>
	<g transform="matrix(1 0 0 1 -7.084296e-006 -4.314168e-005)" clip-path="url(#SVGID_4_)">
		
			<image overflow="visible" width="6016" height="4016" xlink:href="FOTOS/ej-yao-194786.jpg"  transform="matrix(0.2176 0 0 0.2176 -99.646 -698.8252)">
		</image>
	</g>
</g>
<g>
	<path fill-rule="evenodd" clip-rule="evenodd" fill="#1c1c1c" d="M59.183,0c2.266,1.423,4.533,2.847,6.604,4.148
		c-0.656,1.728-1.703,3.267-1.758,4.839c-0.203,5.821-0.082,11.652-0.074,17.479c0,0.374,0.084,0.749,0.129,1.112
		c0.699,0.085,1.295,0.158,2.016,0.245c-0.162,1.283-0.234,2.466-0.473,3.615c-0.504,2.427-1.225,4.817-1.59,7.263
		c-0.178,1.192-0.686,2.641,0.975,3.575c1.307,0.733,1.924,2.138,1.701,3.642c-0.188,1.273-0.689,2.5-1.086,3.856
		c2.414,2.091,4.955,4.296,7.498,6.5c-0.084,0.176-0.17,0.351-0.256,0.525c-0.859-0.337-1.834-0.518-2.555-1.046
		c-1.41-1.033-2.693-2.241-3.998-3.412c-1.289-1.158-2.486-2.468-4.514-1.73c-0.285,0.104-0.678-0.137-0.998-0.084
		c-0.709,0.12-1.543,0.134-2.074,0.53c-2.039,1.519-3.932,3.233-5.977,4.742c-0.715,0.527-1.715,0.667-2.584,0.982
		c-0.082-0.178-0.166-0.356-0.248-0.536c2.863-2.332,5.727-4.663,8.563-6.972c-1.16-2.667-1.139-4.12,0.078-4.44
		c1.832-0.482,1.92,1.037,2.211,2.049c0.893,0.123,1.662,0.229,2.432,0.337c0.947-1.528,0.773-2.404-0.838-3.014
		c-1.186-0.45-1.512-1.211-1.479-2.341c0.033-1.123,0.008-2.248,0.008-3.437c-0.598-0.083-1.084-0.15-1.684-0.235
		c-0.688-3.465-1.373-6.911-2.061-10.375c0.889-0.116,1.543-0.201,2.152-0.281c0-3.51,0-6.898,0-10.748
		c-0.441,0.802-0.662,1.185-0.867,1.577c-5.289,10.168-10.588,20.331-15.852,30.514c-0.734,1.42-1.285,2.936-2.039,4.676
		c-1.572,0-3.473,0-5.459,0c-0.066,1.042-0.123,1.92-0.186,2.908c-7.561,0-15.049,0-22.611,0c-0.076-0.972-0.146-1.855-0.229-2.924
		c-2.99,0-5.906,0-8.867,0c0-9.717,0-19.242,0-28.737c7.607,0,15.09,0,22.771,0c-0.662,6.61,1.311,13.273-2.086,19.435
		c2.168,0.577,3.486,0.074,4.742-1.704c8.742-12.373,17.623-24.648,26.443-36.966c1.305-1.823,2.521-3.71,3.777-5.567
		C58.957,0,59.07,0,59.183,0z M19.697,30.75c-3.533,0-6.992,0-10.563,0c0,2.992,0,5.894,0,8.942c3.486,0,6.945,0,10.563,0
		C19.697,36.675,19.697,33.767,19.697,30.75z M39.515,47.666c-1.607-3.477-3.004-6.496-4.506-9.744
		c-1.291,1.749-2.441,3.305-3.703,5.017C34.017,44.5,36.535,45.949,39.515,47.666z M60.931,15.166
		c-0.119,4.067-0.045,8.14-0.045,12.276c0.848,0.284,1.594,0.553,1.594-0.788c-0.002-5.022,0-10.046,0-15.068
		c-0.215-0.06-0.43-0.119-0.645-0.179C61.519,12.66,60.966,13.906,60.931,15.166z M41.552,44.303
		c0.965-1.669,1.787-3.088,2.697-4.662c-2.096-1.503-4.139-2.967-6.18-4.431c-0.078,0.081-0.158,0.162-0.238,0.243
		C39.027,38.296,40.222,41.138,41.552,44.303z M39.001,32.55c2.006,1.303,3.902,2.536,6.238,4.054
		c-1.15-2.966-2.117-5.453-3.199-8.244C40.914,29.912,40.005,31.168,39.001,32.55z M47.347,34.489
		c0.891-1.75,1.617-3.177,2.377-4.667c-1.762-1.212-3.42-2.354-5.078-3.495c-0.09,0.062-0.178,0.125-0.266,0.187
		C45.33,29.066,46.279,31.618,47.347,34.489z M45.919,23.017c1.529,0.986,3.016,1.946,4.934,3.183
		c-0.563-2.788-1.043-5.16-1.611-7.976C48.005,20.008,47.017,21.433,45.919,23.017z M57.814,15.645
		c-0.627-2.834-1.162-5.273-1.785-8.098c-1.072,1.818-1.967,3.336-2.98,5.056C54.623,13.607,56.056,14.523,57.814,15.645z
		 M51.082,15.667c0.609,2.772,1.133,5.152,1.736,7.9c0.994-1.812,1.82-3.311,2.75-5.005C54.083,17.604,52.746,16.741,51.082,15.667z
		 M58.082,4.403c0.514,2.683,0.959,5.008,1.48,7.727c0.99-1.874,1.791-3.386,2.648-5.01C60.886,6.25,59.644,5.431,58.082,4.403z"/>
	<path fill-rule="evenodd" clip-rule="evenodd" fill="#1c1c1c"	 d="M3.832,76.405C1,75.25-0.012,73.001,0.017,70.108
		c0.014-1.469-0.029-2.937-0.014-4.406c0.045-4.437,1.604-5.991,6.053-5.996c9.318-0.011,18.639-0.006,27.959-0.001
		c1.977,0.001,3.957-0.04,5.93,0.056c3.729,0.18,5.66,2.229,5.682,5.927c0.012,1.92,0.035,3.842-0.018,5.761
		c-0.068,2.494-1.15,3.84-3.527,4.543c-0.416,0.123-0.824,0.275-1.236,0.415C28.507,76.405,16.169,76.405,3.832,76.405z
		 M6.064,70.199c11.139,0,22.186,0,33.367,0c0-1.43,0-2.859,0-4.395c-11.068,0-22.117,0-33.367,0
		C6.064,67.336,6.064,68.721,6.064,70.199z"/>
	<path fill-rule="evenodd" clip-rule="evenodd" fill="#1c1c1c" d="M74.476,68.591c0-0.925,0-1.749,0-2.711
		c-0.93-0.056-1.807-0.109-2.834-0.172c0-1.461,0-2.891,0-4.505c0.893-0.043,1.818-0.088,2.826-0.137c0-0.976,0-1.854,0-2.838
		c-8.004,0-15.955,0-24.047,0c0,0.91,0,1.822,0,2.84c0.914,0.042,1.803,0.083,2.805,0.129c0,1.479,0,2.914,0,4.5
		c-0.912,0.052-1.797,0.102-2.813,0.159c0,0.88,0,1.747,0,2.736C58.375,68.591,66.324,68.591,74.476,68.591z"/>
</g>
</svg>
