<?xml version="1.0" encoding="iso-8859-1"?>
<!-- Uploaded to: SVG Repo, www.svgrepo.com, Generator: SVG Repo Mixer Tools -->
<svg fill="#1c1c1c" height="800px" width="800px" version="1.1" id="Layer_1" xmlns="http://www.w3.org/2000/svg" xmlns:xlink="http://www.w3.org/1999/xlink" 
	 viewBox="0 0 512 512" xml:space="preserve">
<g>
	<g>
		<path fill="#1c1c1c" d="M472.952,243.351c-19.793,0-36.135,14.73-38.69,33.824H274.212v-35.903c46.263-17.75,79.196-62.63,79.196-115.064
			c0-67.929-55.265-123.194-123.194-123.194S107.021,58.278,107.021,126.207c0,52.434,32.932,97.315,79.196,115.064v35.903H77.772
			c-2.434-19.227-18.836-34.099-38.724-34.099C17.481,243.076,0,260.558,0,282.124v100.095c0,21.566,17.481,39.048,39.048,39.048
			c19.888,0,36.29-14.872,38.724-34.099H249.64v109.256c0,6.938,5.624,12.563,12.563,12.563h84.868
			c6.938,0,12.563-5.624,12.563-12.563V387.168h74.56c2.311,19.36,18.777,34.373,38.759,34.373
			c21.566,0,39.048-17.481,39.048-39.048V282.399C512,260.832,494.519,243.351,472.952,243.351z M140.019,126.207
			c0-49.734,40.461-90.195,90.195-90.195s90.195,40.462,90.195,90.195c0,11.761-2.286,22.991-6.4,33.303
			c-21.154-19.633-48.696-31.369-77.976-32.749L182.72,85.644c-7.216-5.566-17.575-4.227-23.141,2.99
			c-5.566,7.215-4.227,17.575,2.99,23.141l27.838,21.469c-16.277,5.571-31.286,14.514-43.984,26.277
			C142.307,149.206,140.019,137.972,140.019,126.207z M230.215,216.402c-25.852,0-49.182-10.95-65.644-28.435
			c16.926-17.93,40.654-28.351,65.615-28.358c0.006,0,0.011,0,0.016,0c0.006,0,0.011-0.001,0.018-0.001
			c25.068,0.001,48.727,10.399,65.645,28.351C279.404,205.45,256.071,216.402,230.215,216.402z"/>
	</g>
</g>
</svg>