<?xml version="1.0" encoding="utf-8"?>
<!-- Generator: Adobe Illustrator 16.0.0, SVG Export Plug-In . SVG Version: 6.00 Build 0)  -->
<!DOCTYPE svg PUBLIC "-//W3C//DTD SVG 1.1//EN" "http://www.w3.org/Graphics/SVG/1.1/DTD/svg11.dtd">
<svg version="1.1" id="Layer_1" xmlns="http://www.w3.org/2000/svg" xmlns:xlink="http://www.w3.org/1999/xlink" x="0px" y="0px"
	 width="82.223px" height="44.585px" viewBox="0 0 82.223 44.585" enable-background="new 0 0 82.223 44.585" xml:space="preserve">
<g>
	<g>
		<defs>
			<rect id="SVGID_25_" x="156.137" y="378.993" width="1920" height="432"/>
		</defs>
		<clipPath id="SVGID_2_">
			<use xlink:href="#SVGID_25_"  overflow="visible"/>
		</clipPath>
		<g transform="matrix(1 0 0 1 2.423898e-005 -3.282109e-007)" clip-path="url(#SVGID_2_)">
			
				<image overflow="visible" width="5184" height="3456" xlink:href="FOTOS/katherine-mccormack-42649.jpg"  transform="matrix(0.3025 0 0 0.3025 -1044.9209 -21.7124)">
			</image>
		</g>
	</g>
</g>
<g>
	<defs>
		<rect id="SVGID_27_" x="520.756" y="-282.475" width="572.973" height="569.971"/>
	</defs>
	<clipPath id="SVGID_4_">
		<use xlink:href="#SVGID_27_"  overflow="visible"/>
	</clipPath>
	<g transform="matrix(1 0 0 1 -7.005500e-006 -4.414854e-005)" clip-path="url(#SVGID_4_)">
		
			<image overflow="visible" width="6016" height="4016" xlink:href="FOTOS/ej-yao-194786.jpg"  transform="matrix(0.2176 0 0 0.2176 -99.415 -552.5723)">
		</image>
	</g>
</g>
<g>
	<g>
		<g>
			<path fill-rule="evenodd" clip-rule="evenodd" fill="#1c1c1c" d="M0,28.377c0.744-0.417,1.477-1.166,2.232-1.191
				c2.875-0.098,5.766-0.066,8.637,0.108c4.445,0.271,8.141-1.181,11.26-4.324c1.953-1.967,4.047-3.794,6.014-5.748
				c1.689-1.676,3.508-2.367,5.756-1.177c2.398,1.269,4.473,0.842,6.359-1.1c0.809-0.833,1.832-1.456,2.742-2.193
				c2-1.618,3.961-1.465,5.73,0.281c2.125,2.096,4.309,4.167,6.166,6.488c4.652,5.81,10.293,9.087,18.008,8.134
				c2.416-0.299,4.906-0.09,7.355,0.032c0.568,0.029,1.107,0.65,1.66,0.999c-0.57,0.436-1.135,1.242-1.709,1.25
				c-4.691,0.059-9.398,0.152-14.078-0.127c-4.82-0.288-8.115-3.493-11.24-6.761c-2.357-2.465-4.682-4.97-6.898-7.561
				c-1.424-1.663-2.734-1.778-4.322-0.322c-0.863,0.791-1.896,1.398-2.734,2.211c-2.105,2.042-4.459,2.439-7.02,1.089
				c-1.912-1.007-3.291-0.642-4.758,0.944c-2.021,2.188-4.271,4.171-6.477,6.183c-2.957,2.697-6.369,4.117-10.475,3.947
				c-3.922-0.162-7.855-0.035-11.783-0.035C0.283,29.129,0.143,28.753,0,28.377z"/>
			<path fill-rule="evenodd" clip-rule="evenodd" fill="#1c1c1c" d="M82.223,32.38c-0.768,0.433-1.537,1.24-2.305,1.238
				c-5.438-0.018-10.953,0.309-16.287-0.507c-3.65-0.558-7.092-2.687-10.541-4.292c-2.021-0.939-3.867-2.253-5.816-3.355
				c-3.74-2.112-7.486-3.035-11.418-0.323c-0.826,0.569-2.168,1.083-3.012,0.813c-3.529-1.132-5.506,0.977-7.709,3.061
				c-3.072,2.907-6.789,4.271-11.084,4.136c-3.943-0.123-7.896-0.009-11.842-0.123c-0.67-0.019-1.32-0.661-1.979-1.016
				c0.68-0.427,1.352-1.204,2.043-1.224c3.732-0.105,7.473-0.119,11.203,0.022c4.201,0.16,7.707-1.237,10.717-4.12
				c2.236-2.144,4.387-4.359,8.094-3.122c0.969,0.324,2.484-0.438,3.549-1.05c3.246-1.864,6.529-1.947,9.799-0.342
				c2.963,1.454,5.918,2.977,8.68,4.771c4.834,3.14,10.016,4.547,15.77,4.264c3.818-0.188,7.652-0.036,11.48-0.036
				C81.785,31.578,82.004,31.979,82.223,32.38z"/>
			<path fill-rule="evenodd" clip-rule="evenodd" fill="#1c1c1c" d="M11.293,38.656c7.873-1.202,15.756-2.353,23.617-3.626
				c5.447-0.881,10.697-0.56,16.133,0.711c6.168,1.442,12.568,1.965,18.898,2.601c3.379,0.339,6.822,0.027,10.232,0.132
				c0.559,0.017,1.096,0.672,1.643,1.033c-0.561,0.452-1.119,1.297-1.68,1.297c-9.896-0.008-19.867,0.73-29.473-2.635
				c-6.395-2.24-12.924-1.684-19.264-0.097c-9.563,2.394-19.238,2.269-28.941,2.138c-0.752-0.01-1.494-0.705-2.242-1.081
				c0.77-0.443,1.52-1.226,2.311-1.268c2.873-0.155,5.758-0.061,8.637-0.061C11.207,38.086,11.25,38.371,11.293,38.656z"/>
			<path fill-rule="evenodd" clip-rule="evenodd" fill="#1c1c1c" d="M69.98,37.199c-5.594,0.588-12.184-0.466-18.258-4.297
				c-1.227-0.772-3.264-1.167-4.578-0.716c-3.566,1.221-6.73,0.485-9.865-1.065c-2.76-1.364-5.252-1.161-7.805,0.614
				c-5.643,3.927-11.953,5.423-18.807,4.953c-2.869-0.197-5.764,0.004-8.641-0.131c-0.635-0.03-1.238-0.72-1.855-1.106
				c0.59-0.421,1.168-1.182,1.773-1.205c2.77-0.103,5.563-0.169,8.318,0.066c6.654,0.568,12.709-0.965,18.191-4.752
				c3.264-2.255,6.635-2.04,10.021-0.438c2.713,1.283,5.336,1.66,8.33,0.717c1.469-0.463,3.67-0.322,4.914,0.496
				c7.475,4.91,15.805,4.548,24.137,4.426c1.387-0.021,2.793-0.119,4.154,0.073c0.652,0.093,1.219,0.781,1.826,1.2
				c-0.605,0.389-1.195,1.088-1.814,1.114C77.146,37.266,74.262,37.199,69.98,37.199z"/>
			<path fill-rule="evenodd" clip-rule="evenodd" fill="#1c1c1c" d="M81.654,42.407c0.461,2.848-1.623,2.088-2.865,2.083
				c-14.203-0.061-28.408-0.199-42.611-0.298c-11.107-0.078-22.213-0.099-33.32-0.247c-0.926-0.013-1.84-0.802-2.76-1.23
				c0.828-0.382,1.656-1.101,2.482-1.096c25.631,0.133,51.26,0.335,76.891,0.54C80.195,42.165,80.918,42.32,81.654,42.407z"/>
		</g>
	</g>
	<polygon fill-rule="evenodd" clip-rule="evenodd" fill="#1c1c1c" points="38.391,0 30.23,14.133 22.072,0 	"/>
</g>
</svg>
