<?xml version="1.0" encoding="utf-8"?>
<!-- Generator: Adobe Illustrator 16.0.0, SVG Export Plug-In . SVG Version: 6.00 Build 0)  -->
<!DOCTYPE svg PUBLIC "-//W3C//DTD SVG 1.1//EN" "http://www.w3.org/Graphics/SVG/1.1/DTD/svg11.dtd">
<svg version="1.1" id="Layer_1" xmlns="http://www.w3.org/2000/svg" xmlns:xlink="http://www.w3.org/1999/xlink" x="0px" y="0px"
	 width="158.729px" height="68.597px" viewBox="0 0 158.729 68.597" enable-background="new 0 0 158.729 68.597"
	 xml:space="preserve">
<g>
	<path fill="#231F20" d="M79.277,56.521l1.168,0.572c-0.079,0.527-0.202,0.971-0.371,1.326s-0.378,0.623-0.629,0.803
		c-0.25,0.182-0.566,0.27-0.953,0.27c-0.469,0-0.853-0.109-1.149-0.33c-0.296-0.221-0.554-0.607-0.769-1.162
		c-0.214-0.555-0.324-1.264-0.324-2.129c0-1.152,0.19-2.039,0.569-2.66c0.379-0.619,0.917-0.928,1.611-0.928
		c0.543,0,0.97,0.176,1.279,0.531c0.313,0.355,0.544,0.9,0.693,1.635l-1.176,0.424c-0.041-0.211-0.085-0.369-0.13-0.467
		c-0.075-0.164-0.166-0.291-0.272-0.379c-0.109-0.09-0.229-0.133-0.362-0.133c-0.302,0-0.532,0.195-0.694,0.588
		c-0.121,0.293-0.182,0.75-0.182,1.375c0,0.773,0.073,1.303,0.218,1.59s0.349,0.43,0.611,0.43c0.255,0,0.448-0.115,0.577-0.348
		C79.125,57.298,79.218,56.962,79.277,56.521L79.277,56.521z M80.923,55.888c0-1.137,0.196-2.023,0.587-2.656
		c0.393-0.633,0.939-0.949,1.639-0.949c0.718,0,1.271,0.311,1.66,0.934c0.387,0.621,0.582,1.494,0.582,2.615
		c0,0.814-0.086,1.482-0.256,2.002c-0.17,0.523-0.414,0.93-0.734,1.219c-0.322,0.289-0.72,0.434-1.199,0.434
		c-0.486,0-0.889-0.123-1.208-0.375c-0.318-0.25-0.577-0.646-0.774-1.189C81.022,57.382,80.923,56.704,80.923,55.888L80.923,55.888z
		 M82.256,55.898c0,0.705,0.078,1.211,0.241,1.518c0.163,0.309,0.383,0.461,0.661,0.461c0.286,0,0.508-0.15,0.664-0.451
		c0.157-0.301,0.236-0.842,0.236-1.621c0-0.656-0.082-1.135-0.246-1.439c-0.162-0.301-0.385-0.453-0.666-0.453
		c-0.268,0-0.484,0.152-0.646,0.461C82.337,54.679,82.256,55.189,82.256,55.898L82.256,55.898z M86.117,52.4h1.245l1.623,3.855V52.4
		h1.256v6.971h-1.256l-1.615-3.828v3.828h-1.253V52.4L86.117,52.4z M90.894,57.062l1.269-0.127c0.025,0.332,0.082,0.586,0.168,0.76
		c0.137,0.283,0.334,0.422,0.588,0.422c0.19,0,0.337-0.07,0.439-0.215c0.104-0.145,0.154-0.311,0.154-0.502
		c0-0.18-0.049-0.342-0.146-0.484c-0.1-0.143-0.326-0.277-0.684-0.404c-0.584-0.213-1-0.494-1.249-0.846
		c-0.251-0.352-0.376-0.799-0.376-1.344c0-0.359,0.063-0.699,0.193-1.018c0.128-0.316,0.321-0.566,0.579-0.75
		c0.258-0.182,0.612-0.271,1.061-0.271c0.55,0,0.971,0.164,1.261,0.494c0.289,0.334,0.46,0.861,0.516,1.582l-1.256,0.117
		c-0.033-0.313-0.104-0.541-0.211-0.684c-0.106-0.143-0.254-0.213-0.441-0.213c-0.156,0-0.272,0.051-0.352,0.16
		c-0.077,0.104-0.117,0.234-0.117,0.387c0,0.111,0.033,0.211,0.098,0.299c0.063,0.094,0.211,0.176,0.447,0.256
		c0.582,0.203,0.999,0.41,1.251,0.617c0.253,0.207,0.435,0.465,0.55,0.771c0.114,0.309,0.174,0.652,0.174,1.031
		c0,0.447-0.079,0.859-0.232,1.236c-0.151,0.377-0.365,0.664-0.641,0.859c-0.275,0.193-0.621,0.291-1.039,0.291
		c-0.732,0-1.241-0.227-1.523-0.684C91.09,58.347,90.931,57.767,90.894,57.062L90.894,57.062z M95.173,52.4h4.05v1.723h-1.358v5.246
		h-1.333v-5.246h-1.358V52.4L95.173,52.4z M99.844,59.37V52.4h2.221c0.411,0,0.727,0.059,0.943,0.174
		c0.219,0.111,0.394,0.324,0.528,0.633c0.133,0.309,0.199,0.686,0.199,1.129c0,0.387-0.052,0.721-0.152,1.002
		c-0.103,0.279-0.243,0.508-0.422,0.682c-0.113,0.111-0.269,0.203-0.468,0.275c0.159,0.086,0.273,0.172,0.349,0.258
		c0.047,0.055,0.118,0.178,0.212,0.363c0.093,0.189,0.154,0.334,0.188,0.434l0.642,2.021h-1.506l-0.711-2.131
		c-0.09-0.275-0.17-0.457-0.241-0.539c-0.096-0.105-0.205-0.16-0.327-0.16h-0.116v2.83H99.844L99.844,59.37z M101.183,55.224h0.562
		c0.061,0,0.177-0.031,0.353-0.094c0.089-0.029,0.161-0.104,0.218-0.221c0.054-0.115,0.082-0.25,0.082-0.404
		c0-0.225-0.044-0.396-0.133-0.518c-0.088-0.121-0.254-0.182-0.497-0.182h-0.584V55.224L101.183,55.224z M107.215,52.4h1.329v4.154
		c0,0.414-0.04,0.801-0.12,1.168c-0.076,0.363-0.204,0.686-0.373,0.961c-0.17,0.273-0.348,0.465-0.533,0.576
		c-0.26,0.154-0.569,0.232-0.933,0.232c-0.21,0-0.438-0.021-0.687-0.072c-0.248-0.047-0.454-0.141-0.622-0.281
		c-0.166-0.143-0.319-0.342-0.457-0.602c-0.139-0.26-0.232-0.527-0.284-0.803c-0.081-0.443-0.123-0.836-0.123-1.18v-4.156h1.331
		v4.256c0,0.383,0.064,0.678,0.193,0.891c0.132,0.215,0.313,0.322,0.544,0.322c0.229,0,0.41-0.105,0.541-0.316
		c0.129-0.211,0.194-0.51,0.194-0.896L107.215,52.4L107.215,52.4z M112.298,56.521l1.168,0.572c-0.08,0.527-0.202,0.971-0.371,1.326
		c-0.168,0.355-0.379,0.623-0.628,0.803c-0.251,0.182-0.568,0.27-0.955,0.27c-0.469,0-0.853-0.109-1.146-0.33
		c-0.298-0.221-0.555-0.607-0.771-1.162c-0.214-0.555-0.323-1.264-0.323-2.129c0-1.152,0.19-2.039,0.568-2.66
		c0.381-0.619,0.919-0.928,1.611-0.928c0.544,0,0.97,0.176,1.281,0.531s0.543,0.9,0.692,1.635l-1.177,0.424
		c-0.041-0.211-0.083-0.369-0.129-0.467c-0.076-0.164-0.166-0.291-0.273-0.379c-0.108-0.09-0.228-0.133-0.361-0.133
		c-0.302,0-0.533,0.195-0.694,0.588c-0.122,0.293-0.182,0.75-0.182,1.375c0,0.773,0.073,1.303,0.217,1.59
		c0.146,0.287,0.351,0.43,0.612,0.43c0.254,0,0.446-0.115,0.578-0.348C112.145,57.298,112.239,56.962,112.298,56.521L112.298,56.521
		z M113.811,52.4h4.049v1.723h-1.36v5.246h-1.331v-5.246h-1.36V52.4H113.811z M118.088,55.888c0-1.137,0.196-2.023,0.588-2.656
		c0.393-0.633,0.938-0.949,1.639-0.949c0.718,0,1.271,0.311,1.66,0.934c0.388,0.621,0.581,1.494,0.581,2.615
		c0,0.814-0.086,1.482-0.255,2.002c-0.171,0.523-0.416,0.93-0.735,1.219c-0.321,0.289-0.719,0.434-1.198,0.434
		c-0.486,0-0.889-0.123-1.209-0.375c-0.318-0.25-0.575-0.646-0.774-1.189C118.188,57.382,118.088,56.704,118.088,55.888
		L118.088,55.888z M119.421,55.898c0,0.705,0.08,1.211,0.242,1.518c0.161,0.309,0.383,0.461,0.66,0.461
		c0.287,0,0.509-0.15,0.665-0.451c0.157-0.301,0.236-0.842,0.236-1.621c0-0.656-0.083-1.135-0.246-1.439
		c-0.165-0.301-0.387-0.453-0.667-0.453c-0.268,0-0.484,0.152-0.646,0.461C119.503,54.679,119.421,55.189,119.421,55.898
		L119.421,55.898z M123.292,59.37V52.4h2.221c0.411,0,0.726,0.059,0.942,0.174c0.219,0.111,0.395,0.324,0.528,0.633
		c0.132,0.309,0.198,0.686,0.198,1.129c0,0.387-0.049,0.721-0.151,1.002c-0.103,0.279-0.242,0.508-0.421,0.682
		c-0.114,0.111-0.269,0.203-0.469,0.275c0.159,0.086,0.275,0.172,0.349,0.258c0.047,0.055,0.119,0.178,0.213,0.363
		c0.093,0.189,0.155,0.334,0.187,0.434l0.645,2.021h-1.507l-0.711-2.131c-0.091-0.275-0.171-0.457-0.242-0.539
		c-0.096-0.105-0.204-0.16-0.327-0.16h-0.117v2.83H123.292L123.292,59.37z M124.629,55.224h0.563c0.06,0,0.178-0.031,0.353-0.094
		c0.088-0.029,0.16-0.104,0.217-0.221c0.055-0.115,0.083-0.25,0.083-0.404c0-0.225-0.044-0.396-0.132-0.518
		c-0.089-0.121-0.255-0.182-0.497-0.182h-0.586V55.224L124.629,55.224z M130.613,58.218l0.212,1.152h1.395l-1.621-6.971h-1.452
		l-1.621,6.971h1.362l0.208-1.152H130.613L130.613,58.218z M130.334,56.71h-0.951l0.474-2.504L130.334,56.71L130.334,56.71z
		 M134.42,57.062l1.27-0.127c0.026,0.332,0.083,0.586,0.168,0.76c0.137,0.283,0.332,0.422,0.588,0.422
		c0.19,0,0.336-0.07,0.439-0.215c0.103-0.145,0.153-0.311,0.153-0.502c0-0.18-0.048-0.342-0.146-0.484s-0.326-0.277-0.684-0.404
		c-0.583-0.213-0.999-0.494-1.248-0.846c-0.252-0.352-0.377-0.799-0.377-1.344c0-0.359,0.064-0.699,0.193-1.018
		c0.128-0.316,0.32-0.566,0.578-0.75c0.26-0.182,0.612-0.271,1.061-0.271c0.55,0,0.972,0.164,1.261,0.494
		c0.289,0.334,0.461,0.861,0.518,1.582l-1.256,0.117c-0.034-0.313-0.105-0.541-0.211-0.684c-0.107-0.143-0.255-0.213-0.442-0.213
		c-0.156,0-0.272,0.051-0.351,0.16c-0.079,0.104-0.117,0.234-0.117,0.387c0,0.111,0.032,0.211,0.097,0.299
		c0.063,0.094,0.212,0.176,0.447,0.256c0.583,0.203,0.999,0.41,1.25,0.617c0.252,0.209,0.437,0.465,0.551,0.771
		c0.113,0.309,0.173,0.652,0.173,1.031c0,0.447-0.077,0.859-0.23,1.236s-0.366,0.664-0.642,0.859
		c-0.274,0.193-0.62,0.291-1.038,0.291c-0.734,0-1.241-0.227-1.523-0.684C134.619,58.347,134.459,57.767,134.42,57.062
		L134.42,57.062z M139.022,59.37V52.4h2.221c0.412,0,0.727,0.059,0.943,0.174c0.218,0.111,0.393,0.324,0.526,0.633
		s0.2,0.686,0.2,1.129c0,0.387-0.051,0.721-0.151,1.002c-0.103,0.279-0.242,0.508-0.422,0.682c-0.113,0.111-0.269,0.203-0.468,0.275
		c0.159,0.086,0.274,0.172,0.349,0.258c0.047,0.055,0.119,0.178,0.212,0.363c0.094,0.189,0.155,0.334,0.187,0.434l0.645,2.021
		h-1.506l-0.712-2.131c-0.091-0.275-0.171-0.457-0.242-0.539c-0.095-0.105-0.204-0.16-0.326-0.16h-0.117v2.83H139.022L139.022,59.37
		z M140.36,55.224h0.562c0.061,0,0.179-0.031,0.354-0.094c0.088-0.029,0.16-0.104,0.216-0.221c0.056-0.115,0.083-0.25,0.083-0.404
		c0-0.225-0.045-0.396-0.133-0.518s-0.253-0.182-0.496-0.182h-0.585V55.224L140.36,55.224z M143.689,52.4h1.334v5.252h2.079v1.719
		h-3.413V52.4L143.689,52.4z"/>
	<polygon fill="#EC1C24" points="36.215,7.042 57.244,20.841 57.244,55.788 36.215,55.788 	"/>
	<polygon fill="#231F20" points="48.607,30.557 62,37.704 62,55.804 48.607,55.804 	"/>
	<polygon fill="#231F20" points="34.271,7.799 22.689,21.035 22.314,52.052 34.271,52.052 	"/>
	<polygon fill="#FFF100" points="34.714,28.369 12.873,36.022 12.873,55.404 34.714,55.404 	"/>
	<path fill="#FFF100" d="M35.16,57.044l35.081,0.717l-0.021,0.234L35.16,58.948c-0.004,0-0.01,0-0.014,0
		c-0.023,0.012-0.048,0.018-0.074,0.018L0.013,58.015L0,57.751l35.072-0.688c0.005,0,0.01,0,0.015,0
		C35.111,57.05,35.136,57.044,35.16,57.044z"/>
	<path fill="#231F20" d="M76.166,7.385h13.483c2.654,0,4.801,0.487,6.441,1.451c1.635,0.973,2.988,2.361,4.056,4.169
		c1.067,1.818,1.838,3.923,2.324,6.33c0.479,2.406,0.718,4.95,0.718,7.642c0,4.215-0.355,7.485-1.073,9.81
		c-0.712,2.323-1.702,4.271-2.975,5.832c-1.265,1.57-2.625,2.617-4.082,3.143c-1.99,0.715-3.794,1.072-5.409,1.072H76.166V7.385
		L76.166,7.385z M85.239,16.321v21.548h2.223c1.899,0,3.248-0.275,4.049-0.845c0.799-0.561,1.428-1.554,1.886-2.956
		c0.452-1.407,0.678-3.693,0.678-6.854c0-4.18-0.507-7.036-1.519-8.579c-1.019-1.543-2.701-2.314-5.054-2.314H85.239L85.239,16.321z
		 M106.375,33.783l8.636-0.727c0.185,1.883,0.568,3.315,1.143,4.308c0.93,1.598,2.271,2.387,4.006,2.387
		c1.294,0,2.291-0.404,2.996-1.22c0.696-0.817,1.046-1.764,1.046-2.839c0-1.02-0.327-1.938-0.998-2.747
		c-0.67-0.809-2.215-1.57-4.649-2.287c-3.979-1.204-6.817-2.792-8.512-4.785c-1.712-1.994-2.565-4.528-2.565-7.615
		c0-2.03,0.438-3.95,1.313-5.75s2.188-3.215,3.944-4.252c1.759-1.029,4.166-1.543,7.222-1.543c3.755,0,6.618,0.938,8.589,2.811
		c1.969,1.874,3.138,4.859,3.516,8.946l-8.555,0.671c-0.227-1.773-0.705-3.068-1.437-3.876c-0.726-0.799-1.73-1.203-3.01-1.203
		c-1.058,0-1.853,0.293-2.385,0.899c-0.533,0.597-0.801,1.332-0.801,2.194c0,0.625,0.219,1.185,0.656,1.691
		c0.432,0.523,1.443,1.001,3.05,1.451c3.967,1.147,6.804,2.315,8.52,3.49c1.717,1.176,2.969,2.627,3.748,4.372
		c0.779,1.735,1.177,3.683,1.177,5.842c0,2.526-0.526,4.858-1.566,6.991c-1.039,2.139-2.495,3.758-4.369,4.859
		c-1.867,1.102-4.226,1.652-7.069,1.652c-4.992,0-8.452-1.287-10.375-3.877C107.715,41.048,106.627,37.769,106.375,33.783
		L106.375,33.783z M137.945,7.385h9.095v39.448h-9.095V7.385z"/>
</g>
</svg>
